<svg width="48" height="48" viewBox="0 0 48 48" fill="none" xmlns="http://www.w3.org/2000/svg">
  <g filter="url(#filter0_d_320_11413)">
    <rect x="8" y="6" width="32" height="32" rx="16" fill="#0077B5" />
    <path
      d="M24.8333 29.5H21.5V19.5H24.8333V21.1667C25.5439 20.2627 26.6214 19.7238 27.7708 19.6975C29.838 19.709 31.506 21.3911 31.5 23.4583V29.5H28.1667V23.875C28.0334 22.9439 27.2348 22.253 26.2942 22.255C25.8827 22.268 25.4944 22.4481 25.2187 22.7539C24.943 23.0596 24.8039 23.4644 24.8333 23.875V29.5ZM19.8333 29.5H16.5V19.5H19.8333V29.5ZM18.1667 17.8333C17.2462 17.8333 16.5 17.0871 16.5 16.1667C16.5 15.2462 17.2462 14.5 18.1667 14.5C19.0871 14.5 19.8333 15.2462 19.8333 16.1667C19.8333 16.6087 19.6577 17.0326 19.3452 17.3452C19.0326 17.6577 18.6087 17.8333 18.1667 17.8333Z"
      fill="white" />
  </g>
  <defs>
    <filter id="filter0_d_320_11413" x="0" y="0" width="48" height="48" filterUnits="userSpaceOnUse"
      color-interpolation-filters="sRGB">
      <feFlood flood-opacity="0" result="BackgroundImageFix" />
      <feColorMatrix in="SourceAlpha" type="matrix"
        values="0 0 0 0 0 0 0 0 0 0 0 0 0 0 0 0 0 0 127 0" result="hardAlpha" />
      <feOffset dy="2" />
      <feGaussianBlur stdDeviation="4" />
      <feColorMatrix type="matrix" values="0 0 0 0 0 0 0 0 0 0 0 0 0 0 0 0 0 0 0.06 0" />
      <feBlend mode="normal" in2="BackgroundImageFix" result="effect1_dropShadow_320_11413" />
      <feBlend mode="normal" in="SourceGraphic" in2="effect1_dropShadow_320_11413" result="shape" />
    </filter>
  </defs>
</svg>