<svg width="10" height="10" viewBox="0 0 10 10" fill="none" xmlns="http://www.w3.org/2000/svg">
  <path
    d="M3.52709 8.55627C2.68452 8.55627 1.92492 8.04872 1.60243 7.27032C1.27994 6.49191 1.45806 5.59588 2.05376 5.00001L2.93793 4.11584L3.52709 4.70501L2.64334 5.58876C2.32753 5.90457 2.2042 6.36487 2.31979 6.79627C2.43538 7.22767 2.77235 7.56463 3.20375 7.68023C3.63515 7.79582 4.09545 7.67248 4.41126 7.35668L5.29501 6.47293L5.88418 7.06251L5.00043 7.94626C4.61046 8.33815 4.07995 8.55779 3.52709 8.55627ZM3.82168 6.76751L3.23251 6.17834L6.17876 3.23209L6.76793 3.82126L3.82209 6.76709L3.82168 6.76751ZM7.06293 5.88376L6.47334 5.29459L7.35709 4.41084C7.6772 4.09598 7.80384 3.63362 7.68886 3.19958C7.57388 2.76555 7.23494 2.42653 6.80093 2.31144C6.36692 2.19636 5.90453 2.32289 5.58959 2.64293L4.70543 3.52668L4.11626 2.93751L5.00043 2.05334C5.81504 1.24583 7.12917 1.24871 7.94024 2.05978C8.75131 2.87085 8.75419 4.18497 7.94668 4.99959L7.06293 5.88334V5.88376Z"
    fill="#79819A" />
</svg>