<svg width="6" height="5" viewBox="0 0 6 5" fill="none" xmlns="http://www.w3.org/2000/svg">
  <path
    d="M1.09477 2.65777C0.441176 2.65777 0 2.20281 0 1.52879C0 0.922172 0.506536 0.416656 1.19281 0.416656C1.94444 0.416656 2.5 1.02327 2.5 1.95005C2.5 4.05636 0.964052 4.89889 0 4.99999V4.07321C0.653595 3.95526 1.38889 3.29809 1.42157 2.57352C1.38889 2.59037 1.25817 2.65777 1.09477 2.65777Z"
    fill="#79819A" />
  <path
    d="M4.4281 2.65777C3.77451 2.65777 3.33333 2.20281 3.33333 1.52879C3.33333 0.922172 3.83987 0.416656 4.52614 0.416656C5.27778 0.416656 5.83333 1.02327 5.83333 1.95005C5.83333 4.05636 4.29738 4.89889 3.33333 4.99999V4.07321C3.98693 3.95526 4.72222 3.29809 4.7549 2.57352C4.72222 2.59037 4.5915 2.65777 4.4281 2.65777Z"
    fill="#79819A" />
</svg>