<svg width="6" height="6" viewBox="0 0 6 6" fill="none" xmlns="http://www.w3.org/2000/svg">
  <path
    d="M4.82194 2.84222C5.47553 2.84222 5.91671 3.29718 5.91671 3.9712C5.91671 4.57782 5.41017 5.08334 4.7239 5.08334C3.97226 5.08334 3.41671 4.47672 3.41671 3.54994C3.41671 1.44363 4.95265 0.601104 5.91671 0.5L5.91671 1.42678C5.26311 1.54473 4.52782 2.2019 4.49514 2.92647C4.52782 2.90962 4.65854 2.84222 4.82194 2.84222Z"
    fill="#79819A" />
  <path
    d="M1.4886 2.84222C2.1422 2.84222 2.58337 3.29718 2.58337 3.9712C2.58337 4.57782 2.07684 5.08334 1.39056 5.08334C0.638929 5.08334 0.0833739 4.47672 0.083374 3.54994C0.0833738 1.44363 1.61932 0.601104 2.58337 0.5V1.42678C1.92978 1.54473 1.19448 2.2019 1.16181 2.92647C1.19448 2.90962 1.3252 2.84222 1.4886 2.84222Z"
    fill="#79819A" />
</svg>